<svg xmlns="http://www.w3.org/2000/svg" width="660" height="540" viewBox="0 0 660 540" role="img" aria-labelledby="title desc">
<title id="title">RDE: open thinking, traceable evidence</title><desc id="desc">Researchers and AI agents use MCP tools, analysis contracts, and evidence records to produce reproducible research reports.</desc>
<defs><marker id="a" viewBox="0 0 10 10" refX="8" refY="5" markerWidth="6" markerHeight="6" orient="auto"><path d="m2 1 6 4-6 4" fill="none" stroke="#718f9f" stroke-width="1.5"/></marker></defs>
<g fill="none" stroke="#718f9f" stroke-width="1.6" marker-end="url(#a)"><path d="M330 118v58H100v46"/><path d="M330 176v46"/><path d="M330 176h230v46"/><path d="M100 332v44h230v40"/><path d="M330 332v84"/><path d="M560 332v44H330"/></g>
<g fill="#f2f6f7" stroke="#cbdce5" stroke-width="1.2"><rect x="135" y="24" width="390" height="94" rx="12"/><rect x="4" y="222" width="192" height="110" rx="12"/><rect x="234" y="222" width="192" height="110" rx="12"/><rect x="464" y="222" width="192" height="110" rx="12"/><rect x="135" y="416" width="390" height="100" rx="12"/></g>
<g fill="#12283b" font-family="Segoe UI,Arial,sans-serif" font-size="20" font-weight="650" text-anchor="middle"><text x="330" y="81">Researchers + AI agents</text><text x="100" y="270">MCP tools</text><text x="330" y="270">Analysis contracts</text><text x="560" y="270">Evidence records</text><text x="330" y="461">Reproducible research reports</text></g>
<g fill="#526777" font-family="Segoe UI,Arial,sans-serif" font-size="16" text-anchor="middle"><text x="100" y="301">Reusable clinical methods</text><text x="330" y="301">Explicit roles and design</text><text x="560" y="301">Cases, decisions, results</text><text x="330" y="490">From open questions to reviewable claims</text></g>
</svg>
